<?xml version="1.0" encoding="utf-8"?>
<!-- Generator: Adobe Illustrator 25.2.3, SVG Export Plug-In . SVG Version: 6.00 Build 0)  -->
<svg version="1.1" id="svg2" xmlns:svg="http://www.w3.org/2000/svg"
	 xmlns="http://www.w3.org/2000/svg" xmlns:xlink="http://www.w3.org/1999/xlink" x="0px" y="0px" viewBox="0 0 490 75"
	 style="enable-background:new 0 0 490 75;" xml:space="preserve">
<style type="text/css">
	.st0{fill:none;stroke:#008000;}
	.st1{fill:none;stroke:#800000;}
	.st2{fill:#FF1E1E;fill-opacity:0.3618;stroke:#000000;stroke-width:2;stroke-linecap:round;}
	.st3{fill:#10FF2E;fill-opacity:0.3947;stroke:#000000;stroke-width:2;stroke-linecap:round;}
	.st4{fill:#0AF5FF;fill-opacity:0.2368;stroke:#000000;stroke-width:2;stroke-linecap:round;}
	.st5{font-family:'ArialMT';}
	.st6{font-size:14.6412px;}
	.st7{font-size:11.5871px;}
	.st8{font-size:14.0407px;}
	.st9{fill:none;stroke:#008080;}
</style>
<path id="path2170" class="st0" d="M22.6,25.2v-9.4h118.1v9.4"/>
<path id="path2172" class="st1" d="M142.6,25.2v-9.4h343.1v9.4"/>
<rect id="rect2174" x="141.6" y="28.7" class="st2" width="346" height="26"/>
<rect id="rect3147" x="21.6" y="28.7" class="st3" width="120" height="26"/>
<rect id="rect3149" x="6.6" y="28.7" class="st4" width="15" height="26"/>
<text transform="matrix(1 0 0 1 0.4925 12.1454)" class="st5 st6">sign</text>
<text transform="matrix(1 0 0 1 51.3049 12.1454)" class="st5 st6">exponent</text>
<text transform="matrix(1 0 0 1 289.0071 12.1454)" class="st5 st6">fraction</text>
<path id="path3381" d="M487.1,59.2c0,0.7-0.4,1.4-1,1.7c-0.6,0.4-1.4,0.4-2,0s-1-1-1-1.7s0.4-1.4,1-1.7s1.4-0.4,2,0
	S487.1,58.5,487.1,59.2L487.1,59.2z"/>
<text transform="matrix(0.9998 1.916166e-02 -1.916166e-02 0.9998 481.5236 72.1751)" class="st5 st7">0</text>
<path id="path3397" d="M144.1,59.2c0,0.7-0.4,1.4-1,1.7c-0.6,0.4-1.4,0.4-2,0s-1-1-1-1.7s0.4-1.4,1-1.7c0.6-0.4,1.4-0.4,2,0
	C143.7,57.9,144.1,58.5,144.1,59.2L144.1,59.2z"/>
<text transform="matrix(1 0 0 1 139.8563 72.3424)" class="st5 st8">f</text>
<path id="path3413" d="M24.1,59.2c0,0.7-0.4,1.4-1,1.7c-0.6,0.4-1.4,0.4-2,0s-1-1-1-1.7s0.4-1.4,1-1.7c0.6-0.4,1.4-0.4,2,0
	S24.1,58.5,24.1,59.2L24.1,59.2z"/>
<text transform="matrix(1 0 0 1 11.6385 72.3424)" class="st5 st8">e+f</text>
<path id="path2232" class="st9" d="M14.1,25.2v-9.4"/>
</svg>
